<svg width="1200" height="630" viewBox="0 0 1200 630" fill="none" xmlns="http://www.w3.org/2000/svg">
  <defs>
    <linearGradient id="bg" x1="0%" y1="0%" x2="100%" y2="100%">
      <stop offset="0%" stop-color="#faf9f7"/>
      <stop offset="100%" stop-color="#f5f3f0"/>
    </linearGradient>
    
    <linearGradient id="spineShade" x1="0%" y1="0%" x2="100%" y2="0%">
      <stop offset="0%" stop-color="rgba(0,0,0,0.06)"/>
      <stop offset="12%" stop-color="rgba(255,255,255,0.08)"/>
      <stop offset="88%" stop-color="rgba(0,0,0,0)"/>
      <stop offset="100%" stop-color="rgba(0,0,0,0.1)"/>
    </linearGradient>
    
    <linearGradient id="shelfTop" x1="0%" y1="0%" x2="0%" y2="100%">
      <stop offset="0%" stop-color="#c9c0b5"/>
      <stop offset="100%" stop-color="#bbb1a5"/>
    </linearGradient>
    <linearGradient id="shelfFront" x1="0%" y1="0%" x2="0%" y2="100%">
      <stop offset="0%" stop-color="#a89d91"/>
      <stop offset="100%" stop-color="#978c80"/>
    </linearGradient>
    
    <filter id="bookShadow" x="-20%" y="-10%" width="140%" height="130%">
      <feDropShadow dx="2" dy="4" stdDeviation="5" flood-color="#000" flood-opacity="0.1"/>
    </filter>
    
    <filter id="shelfShadow" x="-5%" y="-30%" width="110%" height="160%">
      <feDropShadow dx="0" dy="-10" stdDeviation="15" flood-color="#000" flood-opacity="0.06"/>
    </filter>
  </defs>
  
  <rect width="1200" height="630" fill="url(#bg)"/>
  
  <g transform="translate(115, 95)" filter="url(#bookShadow)">
    
    <!-- Book 1 - Red -->
    <g transform="translate(0, 0)">
      <rect x="0" y="60" width="55" height="320" rx="2" fill="#e74c3c"/>
      <rect x="0" y="60" width="55" height="320" rx="2" fill="url(#spineShade)"/>
      <rect x="10" y="95" width="35" height="4" rx="2" fill="rgba(255,255,255,0.35)"/>
      <rect x="10" y="108" width="25" height="3" rx="1.5" fill="rgba(255,255,255,0.2)"/>
      <rect x="10" y="340" width="35" height="3" rx="1.5" fill="rgba(255,255,255,0.15)"/>
    </g>
    
    <!-- Book 2 - Blue -->
    <g transform="translate(65, 0)">
      <rect x="0" y="100" width="48" height="280" rx="2" fill="#3b82f6"/>
      <rect x="0" y="100" width="48" height="280" rx="2" fill="url(#spineShade)"/>
      <rect x="9" y="130" width="30" height="4" rx="2" fill="rgba(255,255,255,0.35)"/>
      <rect x="9" y="142" width="20" height="3" rx="1.5" fill="rgba(255,255,255,0.2)"/>
    </g>
    
    <!-- Book 3 - Green -->
    <g transform="translate(123, 0)">
      <rect x="0" y="40" width="60" height="340" rx="2" fill="#22c55e"/>
      <rect x="0" y="40" width="60" height="340" rx="2" fill="url(#spineShade)"/>
      <rect x="12" y="72" width="36" height="4" rx="2" fill="rgba(255,255,255,0.35)"/>
      <rect x="12" y="84" width="26" height="3" rx="1.5" fill="rgba(255,255,255,0.2)"/>
      <rect x="12" y="340" width="36" height="3" rx="1.5" fill="rgba(255,255,255,0.15)"/>
    </g>
    
    <!-- Book 4 - Amber -->
    <g transform="translate(193, 0)">
      <rect x="0" y="140" width="44" height="240" rx="2" fill="#f59e0b"/>
      <rect x="0" y="140" width="44" height="240" rx="2" fill="url(#spineShade)"/>
      <rect x="8" y="168" width="28" height="4" rx="2" fill="rgba(0,0,0,0.12)"/>
      <rect x="8" y="180" width="18" height="3" rx="1.5" fill="rgba(0,0,0,0.08)"/>
    </g>
    
    <!-- Book 5 - Purple -->
    <g transform="translate(247, 0)">
      <rect x="0" y="75" width="52" height="305" rx="2" fill="#a855f7"/>
      <rect x="0" y="75" width="52" height="305" rx="2" fill="url(#spineShade)"/>
      <rect x="10" y="105" width="32" height="4" rx="2" fill="rgba(255,255,255,0.28)"/>
      <rect x="10" y="117" width="22" height="3" rx="1.5" fill="rgba(255,255,255,0.15)"/>
      <rect x="10" y="345" width="32" height="3" rx="1.5" fill="rgba(255,255,255,0.1)"/>
    </g>
    
    <!-- Book 6 - Cyan -->
    <g transform="translate(309, 0)">
      <rect x="0" y="50" width="56" height="330" rx="2" fill="#06b6d4"/>
      <rect x="0" y="50" width="56" height="330" rx="2" fill="url(#spineShade)"/>
      <rect x="11" y="82" width="34" height="4" rx="2" fill="rgba(255,255,255,0.35)"/>
      <rect x="11" y="94" width="24" height="3" rx="1.5" fill="rgba(255,255,255,0.2)"/>
    </g>
    
    <!-- Book 7 - Pink -->
    <g transform="translate(375, 0)">
      <rect x="0" y="110" width="50" height="270" rx="2" fill="#ec4899"/>
      <rect x="0" y="110" width="50" height="270" rx="2" fill="url(#spineShade)"/>
      <rect x="10" y="140" width="30" height="4" rx="2" fill="rgba(255,255,255,0.4)"/>
      <rect x="10" y="152" width="20" height="3" rx="1.5" fill="rgba(255,255,255,0.25)"/>
    </g>
    
    <!-- Book 8 - Red dark -->
    <g transform="translate(435, 0)">
      <rect x="0" y="30" width="62" height="350" rx="2" fill="#dc2626"/>
      <rect x="0" y="30" width="62" height="350" rx="2" fill="url(#spineShade)"/>
      <rect x="12" y="62" width="38" height="4" rx="2" fill="rgba(255,255,255,0.3)"/>
      <rect x="12" y="74" width="26" height="3" rx="1.5" fill="rgba(255,255,255,0.18)"/>
      <rect x="12" y="345" width="38" height="3" rx="1.5" fill="rgba(255,255,255,0.12)"/>
    </g>
    
    <!-- Book 9 - Indigo -->
    <g transform="translate(507, 0)">
      <rect x="0" y="150" width="46" height="230" rx="2" fill="#6366f1"/>
      <rect x="0" y="150" width="46" height="230" rx="2" fill="url(#spineShade)"/>
      <rect x="9" y="178" width="28" height="4" rx="2" fill="rgba(255,255,255,0.4)"/>
      <rect x="9" y="190" width="18" height="3" rx="1.5" fill="rgba(255,255,255,0.25)"/>
    </g>
    
    <!-- Book 10 - Emerald -->
    <g transform="translate(563, 0)">
      <rect x="0" y="85" width="54" height="295" rx="2" fill="#10b981"/>
      <rect x="0" y="85" width="54" height="295" rx="2" fill="url(#spineShade)"/>
      <rect x="10" y="115" width="34" height="4" rx="2" fill="rgba(255,255,255,0.35)"/>
      <rect x="10" y="127" width="22" height="3" rx="1.5" fill="rgba(255,255,255,0.2)"/>
    </g>
    
    <!-- Book 11 - Orange -->
    <g transform="translate(627, 0)">
      <rect x="0" y="55" width="54" height="325" rx="2" fill="#f97316"/>
      <rect x="0" y="55" width="54" height="325" rx="2" fill="url(#spineShade)"/>
      <rect x="10" y="85" width="34" height="4" rx="2" fill="rgba(255,255,255,0.35)"/>
      <rect x="10" y="97" width="24" height="3" rx="1.5" fill="rgba(255,255,255,0.2)"/>
    </g>
    
    <!-- Book 12 - Violet -->
    <g transform="translate(691, 0)">
      <rect x="0" y="120" width="48" height="260" rx="2" fill="#8b5cf6"/>
      <rect x="0" y="120" width="48" height="260" rx="2" fill="url(#spineShade)"/>
      <rect x="9" y="150" width="30" height="4" rx="2" fill="rgba(255,255,255,0.3)"/>
      <rect x="9" y="162" width="20" height="3" rx="1.5" fill="rgba(255,255,255,0.18)"/>
    </g>
    
    <!-- Book 13 - Rose -->
    <g transform="translate(749, 0)">
      <rect x="0" y="45" width="58" height="335" rx="2" fill="#f43f5e"/>
      <rect x="0" y="45" width="58" height="335" rx="2" fill="url(#spineShade)"/>
      <rect x="11" y="75" width="36" height="4" rx="2" fill="rgba(255,255,255,0.32)"/>
      <rect x="11" y="87" width="26" height="3" rx="1.5" fill="rgba(255,255,255,0.18)"/>
      <rect x="11" y="345" width="36" height="3" rx="1.5" fill="rgba(255,255,255,0.12)"/>
    </g>
    
    <!-- Book 14 - Teal -->
    <g transform="translate(817, 0)">
      <rect x="0" y="160" width="44" height="220" rx="2" fill="#14b8a6"/>
      <rect x="0" y="160" width="44" height="220" rx="2" fill="url(#spineShade)"/>
      <rect x="8" y="188" width="28" height="4" rx="2" fill="rgba(255,255,255,0.35)"/>
      <rect x="8" y="200" width="18" height="3" rx="1.5" fill="rgba(255,255,255,0.2)"/>
    </g>
    
    <!-- Book 15 - Blue dark -->
    <g transform="translate(871, 0)">
      <rect x="0" y="35" width="58" height="345" rx="2" fill="#2563eb"/>
      <rect x="0" y="35" width="58" height="345" rx="2" fill="url(#spineShade)"/>
      <rect x="11" y="65" width="36" height="4" rx="2" fill="rgba(255,255,255,0.28)"/>
      <rect x="11" y="77" width="24" height="3" rx="1.5" fill="rgba(255,255,255,0.15)"/>
      <rect x="11" y="345" width="36" height="3" rx="1.5" fill="rgba(255,255,255,0.1)"/>
    </g>
    
    <!-- Book 16 - Amber light -->
    <g transform="translate(939, 0)">
      <rect x="0" y="95" width="52" height="285" rx="2" fill="#fbbf24"/>
      <rect x="0" y="95" width="52" height="285" rx="2" fill="url(#spineShade)"/>
      <rect x="10" y="125" width="32" height="4" rx="2" fill="rgba(0,0,0,0.1)"/>
      <rect x="10" y="137" width="22" height="3" rx="1.5" fill="rgba(0,0,0,0.07)"/>
    </g>
    
  </g>
  
  <g filter="url(#shelfShadow)">
    <rect x="80" y="475" width="1040" height="16" fill="url(#shelfTop)"/>
    <rect x="80" y="491" width="1040" height="28" fill="url(#shelfFront)"/>
    <rect x="80" y="475" width="1040" height="1.5" fill="rgba(255,255,255,0.3)"/>
    <rect x="80" y="518" width="1040" height="1" fill="rgba(0,0,0,0.2)"/>
  </g>
</svg>
